HIERARCHY
ROOT RootJoint
{
    OFFSET   0.000000   0.000000   0.000000
    CHANNELS 6 Xposition Yposition Zposition Xrotation Yrotation Zrotation
    JOINT pelvis_lowerback
    {
        OFFSET   0.000000   0.093605   0.000000
        CHANNELS 3 Xrotation Yrotation Zrotation
        JOINT lowerback_torso
        {
            OFFSET   0.000000   0.100000   0.000000
            CHANNELS 3 Xrotation Yrotation Zrotation
            JOINT torso_head
            {
                OFFSET   0.000000   0.282350   0.000000
                CHANNELS 3 Xrotation Yrotation Zrotation
                End Site
                {
                    OFFSET   0.000000   0.192650   0.000000
                }
            }
            JOINT rTorso_Clavicle
            {
                OFFSET  -0.001000   0.157500   0.000000
                CHANNELS 3 Xrotation Yrotation Zrotation
                JOINT rShoulder
                {
                    OFFSET  -0.117647   0.000000   0.000000
                    CHANNELS 3 Xrotation Yrotation Zrotation
                    JOINT rElbow
                    {
                        OFFSET  -0.245000   0.000000   0.000000
                        CHANNELS 3 Xrotation Yrotation Zrotation
                        JOINT rWrist
                        {
                            OFFSET  -0.240000   0.000000   0.000000
                            CHANNELS 3 Xrotation Yrotation Zrotation
                            End Site
                            {
                                OFFSET  -0.116353  -0.002500   0.000000
                            }
                        }
                    }
                }
            }
            JOINT lTorso_Clavicle
            {
                OFFSET   0.001000   0.157500   0.000000
                CHANNELS 3 Xrotation Yrotation Zrotation
                JOINT lShoulder
                {
                    OFFSET   0.117647   0.000000   0.000000
                    CHANNELS 3 Xrotation Yrotation Zrotation
                    JOINT lElbow
                    {
                        OFFSET   0.245000   0.000000   0.000000
                        CHANNELS 3 Xrotation Yrotation Zrotation
                        JOINT lWrist
                        {
                            OFFSET   0.240000   0.000000   0.000000
                            CHANNELS 3 Xrotation Yrotation Zrotation
                            End Site
                            {
                                OFFSET   0.116353  -0.002500   0.000000
                            }
                        }
                    }
                }
            }
        }
    }
    JOINT rHip
    {
        OFFSET  -0.100000  -0.051395   0.000000
        CHANNELS 3 Xrotation Yrotation Zrotation
        JOINT rKnee
        {
            OFFSET   0.000000  -0.410000   0.000000
            CHANNELS 3 Xrotation Yrotation Zrotation
            JOINT rAnkle
            {
                OFFSET   0.000000  -0.390000   0.000000
                CHANNELS 3 Xrotation Yrotation Zrotation
                JOINT rToeJoint
                {
                    OFFSET   0.000000  -0.050000   0.130000
                    CHANNELS 3 Xrotation Yrotation Zrotation
                    End Site
                    {
                        OFFSET  -0.010000   0.002000   0.060000
                    }
                }
            }
        }
    }
    JOINT lHip
    {
        OFFSET   0.100000  -0.051395   0.000000
        CHANNELS 3 Xrotation Yrotation Zrotation
        JOINT lKnee
        {
            OFFSET   0.000000  -0.410000   0.000000
            CHANNELS 3 Xrotation Yrotation Zrotation
            JOINT lAnkle
            {
                OFFSET   0.000000  -0.390000   0.000000
                CHANNELS 3 Xrotation Yrotation Zrotation
                JOINT lToeJoint
                {
                    OFFSET   0.000000  -0.050000   0.130000
                    CHANNELS 3 Xrotation Yrotation Zrotation
                    End Site
                    {
                        OFFSET   0.010000   0.002000   0.060000
                    }
                }
            }
        }
    }
}
MOTION
Frames: 8
Frame Time:   0.008333
 -2.358484   0.916970   3.988490  14.862167   0.316238  -3.455350   4.220921   1.072400  -5.599342   3.729355   2.102174  -2.514722  -2.266302   1.103033   1.389416   6.202029 -14.926854   1.617452  37.170755   6.724068  44.468850 179.998448  81.835122 -179.998486  -6.736174   8.470910   7.675186   6.310832  13.184174  -2.334586  40.349563  -8.023200 -38.761939 179.993175 -81.207774 179.992888  -3.280129  -9.723351  -6.414430 -20.353143  -7.487477  -6.351597  10.801965   0.000147   0.000086   1.995733  -6.463358   5.673437  -3.520471  -0.000421  -0.000461 -19.709034   3.387370   6.847496  15.510451   0.000012   0.000094 -10.560145   5.970292  -0.345400  -0.145610  -0.000071   0.000026
 -2.358301   0.917197   3.988364  14.867196   0.295044  -3.486816   4.152256   1.067160  -5.612001   3.798664   2.123958  -2.541562  -2.278460   1.093873   1.395670   6.251615 -14.858347   1.677550  37.350717   6.802195  44.372443 179.997471  81.748989 -179.997573  -6.753772   8.481058   7.762179   6.351526  13.133877  -2.350581  40.568367  -8.132099 -38.721667 179.992222 -81.084636 179.991954  -3.299072  -9.715991  -6.461765 -20.322732  -7.445427  -6.324227  10.742005   0.000107   0.000052   2.002878  -6.501884   5.688649  -3.153923  -0.000328  -0.000376 -19.637833   3.370658   6.868980  15.337956   0.000008   0.000131 -10.449974   6.005335  -0.410118  -0.163527  -0.000068   0.000021
 -2.358077   0.917414   3.988302  14.867964   0.284316  -3.510409   4.073051   1.060059  -5.595994   3.861692   2.143277  -2.553888  -2.290239   1.085148   1.401407   6.304168 -14.800393   1.732802  37.524624   6.874075  44.283023 179.996751  81.664582 -179.996871  -6.773527   8.513314   7.870909   6.403263  13.091825  -2.372998  40.784694  -8.240253 -38.691712 179.991797 -80.962261 179.991559  -3.317991  -9.706343  -6.583387 -20.286051  -7.403005  -6.314179  10.699697   0.000075   0.000027   2.009118  -6.538166   5.702368  -2.822672  -0.000221  -0.000288 -19.553289   3.355008   6.876767  15.156338  -0.000002   0.000153 -10.340167   6.033644  -0.470031  -0.180852  -0.000065   0.000017
 -2.357844   0.917613   3.988275  14.866351   0.275805  -3.528062   3.989395   1.055794  -5.560113   3.914859   2.163436  -2.550645  -2.302760   1.076945   1.409080   6.355638 -14.749183   1.785533  37.689174   6.940411  44.200701 179.996290  81.585531 -179.996400  -6.793427   8.549349   7.983845   6.456245  13.057178  -2.395898  40.990623  -8.341125 -38.666255 179.991916 -80.846726 179.991720  -3.336070  -9.696546  -6.725070 -20.247740  -7.362735  -6.312050  10.664812   0.000051   0.000010   2.015198  -6.572117   5.715068  -2.518671  -0.000131  -0.000221 -19.466150   3.342259   6.877600  14.980183  -0.000012   0.000165 -10.236600   6.059191  -0.526290  -0.197404  -0.000061   0.000014
 -2.357618   0.917790   3.988266  14.862423   0.267247  -3.538841   3.904161   1.054357  -5.510069   3.959122   2.184873  -2.534148  -2.315709   1.069308   1.418181   6.404276 -14.702121   1.836716  37.843302   7.002660  44.124839 179.996031  81.511811 -179.996112  -6.812816   8.584586   8.095691   6.507562  13.027898  -2.416077  41.184516  -8.433755 -38.642684 179.992394 -80.738533 179.992253  -3.353172  -9.687380  -6.865081 -20.209717  -7.324885  -6.315224  10.634305   0.000034  -0.000000   2.020967  -6.603877   5.726858  -2.239961  -0.000065  -0.000176 -19.378979   3.332840   6.872358  14.812901  -0.000020   0.000171 -10.140078   6.083585  -0.579370  -0.213084  -0.000058   0.000011
 -2.357413   0.917944   3.988266  14.856224   0.258222  -3.542055   3.819025   1.055022  -5.449490   3.995805   2.207168  -2.506788  -2.328774   1.062206   1.428188   6.449436 -14.657929   1.886622  37.986932   7.061626  44.054830 179.995920  81.443035 -179.995965  -6.831602   8.618618   8.204935   6.556163  13.002524  -2.432458  41.366234  -8.518421 -38.619877 179.993079 -80.637394 179.992999  -3.369274  -9.679019  -6.996695 -20.173003  -7.289405  -6.322159  10.606885   0.000021  -0.000007   2.026394  -6.633585   5.737812  -1.984530  -0.000024  -0.000147 -19.292814   3.326673   6.861265  14.655288  -0.000025   0.000173 -10.050307   6.107323  -0.629604  -0.227816  -0.000054   0.000009
 -2.357238   0.918074   3.988270  14.847836   0.248830  -3.537333   3.735057   1.057089  -5.380949   4.026102   2.229795  -2.470640  -2.341740   1.055593   1.438768   6.491028 -14.616039   1.935259  38.120463   7.117690  43.990147 179.995919  81.378837 -179.995925  -6.849799   8.651652   8.311032   6.601698  12.980097  -2.444979  41.536153  -8.595740 -38.597420 179.993861 -80.542898 179.993846  -3.384402  -9.671442  -7.118301 -20.138164  -7.256176  -6.331606  10.581857   0.000014  -0.000010   2.031478  -6.661366   5.747997  -1.750454  -0.000004  -0.000129 -19.208184   3.323515   6.844541  14.507325  -0.000027   0.000170  -9.966766   6.130546  -0.677230  -0.241531  -0.000050   0.000007
 -2.356941   0.918229   3.988447  14.784449   0.267014  -3.485703   3.670275   1.034742  -5.300484   4.071850   2.255413  -2.434197  -2.325030   1.064808   1.403419   6.539475 -14.595457   2.009057  38.236054   7.158857  43.900386 179.996203  81.335012 -179.996171  -6.847758   8.695801   8.427449   6.665484  12.951645  -2.438613  41.756529  -8.719312 -38.603605 179.994127 -80.421115 179.994190  -3.407550  -9.663752  -7.224141 -20.049319  -7.193799  -6.406167  10.640654   0.000029   0.000020   1.921959  -6.669856   5.753961  -1.591528   0.000034  -0.000035 -18.995684   3.318905   6.755831  14.250793  -0.000067   0.000206  -9.853873   6.157525  -0.661006  -0.243881  -0.000040   0.000006
